<svg width="191" height="50" viewBox="0 0 191 50" fill="none" xmlns="http://www.w3.org/2000/svg">
<g clip-path="url(#clip0)">
<rect width="191" height="50" fill="white"/>
<rect y="-2" width="310" height="55" fill="black"/>
<mask id="mask0" mask-type="alpha" maskUnits="userSpaceOnUse" x="0" y="0" width="50" height="50">
<rect width="50" height="50" fill="#C4C4C4"/>
</mask>
<g mask="url(#mask0)">
<rect y="25" width="50" height="26" fill="#D74A4A"/>
<rect y="-1" width="50" height="26" fill="#4449CC"/>
<rect x="18" y="18" width="14" height="14" fill="white"/>
</g>
<path d="M75.1345 28.0411C75.1345 29.24 75.4038 30.2044 75.9424 30.9341C76.4811 31.6639 77.2803 32.0288 78.3402 32.0288C78.6877 32.0288 79.0092 32.0201 79.3046 32.0027C79.6 31.968 79.8432 31.9332 80.0343 31.8985V24.8353C79.7911 24.679 79.4696 24.5486 79.07 24.4444C78.6877 24.3401 78.2968 24.288 77.8972 24.288C76.0554 24.288 75.1345 25.539 75.1345 28.0411ZM83.9178 34.5569C83.5703 34.6612 83.1706 34.7654 82.7189 34.8697C82.2671 34.9566 81.7893 35.0348 81.2854 35.1043C80.7989 35.1738 80.295 35.2259 79.7737 35.2606C79.2698 35.3128 78.7833 35.3388 78.3142 35.3388C77.1848 35.3388 76.177 35.1738 75.2908 34.8436C74.4047 34.5135 73.6575 34.0443 73.0494 33.4362C72.4413 32.8107 71.9721 32.0635 71.642 31.1948C71.3292 30.3086 71.1728 29.3182 71.1728 28.2236C71.1728 27.1115 71.3118 26.1124 71.5899 25.2263C71.8679 24.3228 72.2675 23.5582 72.7888 22.9327C73.31 22.3072 73.9442 21.8294 74.6914 21.4992C75.4559 21.1691 76.3247 21.004 77.2977 21.004C77.8363 21.004 78.3142 21.0562 78.7312 21.1604C79.1656 21.2647 79.6 21.4124 80.0343 21.6035V15.4005L83.9178 14.7749V34.5569ZM86.9024 28.2496C86.9024 27.0333 87.0849 25.9734 87.4497 25.0699C87.832 24.149 88.3272 23.3845 88.9353 22.7763C89.5435 22.1682 90.2385 21.7078 91.0204 21.395C91.8197 21.0822 92.6363 20.9259 93.4703 20.9259C95.4164 20.9259 96.9541 21.5253 98.0835 22.7242C99.2129 23.9058 99.7776 25.652 99.7776 27.9629C99.7776 28.1888 99.769 28.4408 99.7516 28.7188C99.7342 28.9794 99.7168 29.214 99.6995 29.4225H90.8901C90.977 30.2217 91.3505 30.8559 92.0108 31.3251C92.6711 31.7942 93.5572 32.0288 94.6693 32.0288C95.3816 32.0288 96.0767 31.968 96.7543 31.8463C97.4493 31.7073 98.014 31.5423 98.4484 31.3511L98.9697 34.5048C98.7612 34.6091 98.4832 34.7133 98.1357 34.8176C97.7881 34.9218 97.3972 35.0087 96.9628 35.0782C96.5458 35.1651 96.094 35.2346 95.6075 35.2867C95.121 35.3388 94.6345 35.3649 94.148 35.3649C92.9143 35.3649 91.837 35.1824 90.9161 34.8176C90.0126 34.4527 89.2568 33.9575 88.6486 33.332C88.0579 32.6891 87.6148 31.9332 87.3194 31.0645C87.0414 30.1957 86.9024 29.2574 86.9024 28.2496ZM96.0245 26.764C96.0072 26.4339 95.9463 26.1124 95.8421 25.7997C95.7552 25.4869 95.6075 25.2089 95.399 24.9657C95.2079 24.7224 94.9559 24.5226 94.6432 24.3662C94.3478 24.2098 93.9742 24.1316 93.5225 24.1316C93.0881 24.1316 92.7145 24.2098 92.4017 24.3662C92.089 24.5052 91.8284 24.6963 91.6199 24.9396C91.4113 25.1829 91.2463 25.4695 91.1247 25.7997C91.0204 26.1124 90.9422 26.4339 90.8901 26.764H96.0245ZM106.502 35C105.615 33.2625 104.712 31.2295 103.791 28.9012C102.887 26.5729 102.027 24.0361 101.211 21.2907H105.329C105.502 21.9684 105.702 22.7068 105.928 23.5061C106.171 24.288 106.415 25.0873 106.658 25.9039C106.919 26.7032 107.171 27.4851 107.414 28.2496C107.674 29.0141 107.926 29.7092 108.17 30.3347C108.395 29.7092 108.639 29.0141 108.899 28.2496C109.16 27.4851 109.412 26.7032 109.655 25.9039C109.916 25.0873 110.159 24.288 110.385 23.5061C110.628 22.7068 110.837 21.9684 111.01 21.2907H115.024C114.208 24.0361 113.339 26.5729 112.418 28.9012C111.514 31.2295 110.62 33.2625 109.733 35H106.502ZM117.104 35V15.4005L120.988 14.7749V21.3429C121.248 21.256 121.578 21.1778 121.978 21.1083C122.395 21.0214 122.795 20.978 123.177 20.978C124.289 20.978 125.21 21.1344 125.94 21.4471C126.687 21.7425 127.278 22.1682 127.712 22.7242C128.164 23.2802 128.476 23.9405 128.65 24.705C128.841 25.4695 128.937 26.3209 128.937 27.2592V35H125.053V27.7284C125.053 26.4773 124.888 25.5912 124.558 25.0699C124.246 24.5486 123.655 24.288 122.786 24.288C122.438 24.288 122.108 24.3228 121.796 24.3923C121.5 24.4444 121.231 24.5052 120.988 24.5747V35H117.104ZM137.691 32.2894C138.073 32.2894 138.438 32.2807 138.785 32.2634C139.133 32.246 139.411 32.2199 139.619 32.1852V29.24C139.463 29.2053 139.228 29.1705 138.916 29.1358C138.603 29.101 138.316 29.0836 138.056 29.0836C137.691 29.0836 137.343 29.1097 137.013 29.1618C136.7 29.1966 136.422 29.2748 136.179 29.3964C135.936 29.518 135.745 29.6831 135.606 29.8916C135.467 30.1001 135.397 30.3607 135.397 30.6735C135.397 31.2816 135.597 31.7073 135.997 31.9506C136.414 32.1765 136.978 32.2894 137.691 32.2894ZM137.378 20.9259C138.525 20.9259 139.48 21.0562 140.245 21.3168C141.009 21.5774 141.618 21.951 142.069 22.4375C142.538 22.924 142.869 23.5148 143.06 24.2098C143.251 24.9048 143.346 25.6781 143.346 26.5295V34.6091C142.79 34.7307 142.017 34.8697 141.027 35.0261C140.036 35.1998 138.837 35.2867 137.43 35.2867C136.544 35.2867 135.736 35.2085 135.006 35.0521C134.294 34.8957 133.677 34.6438 133.156 34.2963C132.634 33.9314 132.235 33.4623 131.957 32.8889C131.679 32.3155 131.54 31.6118 131.54 30.7778C131.54 29.9785 131.696 29.3008 132.009 28.7448C132.339 28.1888 132.773 27.7457 133.312 27.4156C133.851 27.0855 134.468 26.8509 135.163 26.7119C135.858 26.5555 136.579 26.4773 137.326 26.4773C137.83 26.4773 138.273 26.5034 138.655 26.5555C139.055 26.5903 139.376 26.6424 139.619 26.7119V26.347C139.619 25.6867 139.42 25.1568 139.02 24.7572C138.62 24.3575 137.925 24.1577 136.935 24.1577C136.275 24.1577 135.623 24.2098 134.98 24.3141C134.337 24.401 133.781 24.5313 133.312 24.705L132.817 21.5774C133.043 21.5079 133.321 21.4384 133.651 21.3689C133.998 21.2821 134.372 21.2126 134.772 21.1604C135.171 21.0909 135.588 21.0388 136.023 21.004C136.474 20.9519 136.926 20.9259 137.378 20.9259ZM150.741 35H146.858V21.2907H150.741V35ZM151.106 17.3291C151.106 18.0415 150.872 18.6062 150.403 19.0232C149.951 19.4229 149.412 19.6227 148.787 19.6227C148.161 19.6227 147.614 19.4229 147.145 19.0232C146.693 18.6062 146.467 18.0415 146.467 17.3291C146.467 16.6167 146.693 16.0607 147.145 15.6611C147.614 15.2441 148.161 15.0356 148.787 15.0356C149.412 15.0356 149.951 15.2441 150.403 15.6611C150.872 16.0607 151.106 16.6167 151.106 17.3291ZM154.262 17.8765L158.145 17.2509V21.2907H162.81V24.5226H158.145V29.3443C158.145 30.1609 158.284 30.8125 158.562 31.299C158.857 31.7855 159.439 32.0288 160.308 32.0288C160.725 32.0288 161.151 31.994 161.585 31.9245C162.037 31.8377 162.445 31.7247 162.81 31.5857L163.358 34.6091C162.889 34.8002 162.367 34.9652 161.794 35.1043C161.22 35.2433 160.517 35.3128 159.683 35.3128C158.623 35.3128 157.745 35.1738 157.05 34.8957C156.355 34.6004 155.799 34.2007 155.382 33.6968C154.965 33.1756 154.67 32.5501 154.496 31.8203C154.34 31.0905 154.262 30.2826 154.262 29.3964V17.8765ZM169.856 35H165.973V21.2907H169.856V35ZM170.221 17.3291C170.221 18.0415 169.986 18.6062 169.517 19.0232C169.066 19.4229 168.527 19.6227 167.901 19.6227C167.276 19.6227 166.729 19.4229 166.259 19.0232C165.808 18.6062 165.582 18.0415 165.582 17.3291C165.582 16.6167 165.808 16.0607 166.259 15.6611C166.729 15.2441 167.276 15.0356 167.901 15.0356C168.527 15.0356 169.066 15.2441 169.517 15.6611C169.986 16.0607 170.221 16.6167 170.221 17.3291Z" fill="white"/>
</g>
<defs>
<clipPath id="clip0">
<rect width="191" height="50" fill="white"/>
</clipPath>
</defs>
</svg>
