<svg width="787" height="226" viewBox="0 0 787 226" fill="none" xmlns="http://www.w3.org/2000/svg">
<path fill-rule="evenodd" clip-rule="evenodd" d="M100.494 0C98.2508 0 96.2205 1.32786 95.3214 3.38286L1.46007 217.923C-0.171858 221.653 2.56103 225.832 6.6325 225.832H347.17C349.413 225.832 351.443 224.504 352.342 222.449L446.204 7.90874C447.836 4.17863 445.103 0 441.031 0H100.494ZM134.872 142.148C132.072 138.354 130.672 133.341 130.672 127.108C130.672 114.1 135.459 107.596 145.035 107.596C147.112 107.596 149.145 107.867 151.132 108.409C153.21 108.951 154.881 109.629 156.146 110.442V147.162C155.152 147.342 153.887 147.523 152.352 147.704C150.816 147.794 149.145 147.839 147.338 147.839C141.828 147.839 137.673 145.942 134.872 142.148ZM170.102 162.609C172.451 162.067 174.528 161.525 176.335 160.983V58.1389L156.146 61.3909V93.6396C153.887 92.646 151.629 91.8782 149.371 91.3362C147.203 90.7942 144.719 90.5232 141.918 90.5232C136.86 90.5232 132.343 91.3813 128.368 93.0976C124.484 94.814 121.187 97.2981 118.477 100.55C115.767 103.802 113.689 107.777 112.244 112.474C110.799 117.081 110.076 122.275 110.076 128.056C110.076 133.747 110.889 138.896 112.515 143.503C114.231 148.02 116.67 151.904 119.832 155.156C122.994 158.318 126.878 160.757 131.485 162.473C136.092 164.19 141.331 165.048 147.203 165.048C149.642 165.048 152.171 164.912 154.791 164.641C157.501 164.461 160.12 164.19 162.65 163.828C165.269 163.467 167.753 163.06 170.102 162.609ZM194.697 111.661C192.8 116.358 191.852 121.869 191.852 128.192C191.852 133.431 192.574 138.309 194.02 142.826C195.555 147.342 197.859 151.272 200.93 154.614C204.092 157.866 208.021 160.441 212.719 162.338C217.506 164.235 223.107 165.183 229.521 165.183C232.05 165.183 234.579 165.048 237.109 164.777C239.638 164.506 241.986 164.144 244.154 163.693C246.413 163.331 248.445 162.88 250.252 162.338C252.059 161.796 253.504 161.254 254.588 160.712L251.878 144.316C249.62 145.31 246.684 146.168 243.07 146.891C239.548 147.523 235.934 147.839 232.231 147.839C226.449 147.839 221.842 146.62 218.41 144.181C214.977 141.742 213.035 138.445 212.583 134.289H258.382C258.472 133.205 258.563 131.986 258.653 130.631C258.743 129.186 258.788 127.876 258.788 126.701C258.788 114.687 255.853 105.609 249.981 99.4661C244.109 93.2331 236.115 90.1167 225.998 90.1167C221.662 90.1167 217.416 90.9297 213.261 92.5557C209.196 94.1816 205.582 96.5755 202.421 99.7371C199.259 102.899 196.685 106.873 194.697 111.661ZM238.328 115.455C238.87 117.081 239.186 118.752 239.277 120.468H212.583C212.854 118.752 213.261 117.081 213.803 115.455C214.435 113.739 215.293 112.248 216.377 110.984C217.461 109.719 218.816 108.725 220.442 108.003C222.068 107.19 224.01 106.783 226.269 106.783C228.617 106.783 230.559 107.19 232.095 108.003C233.721 108.816 235.031 109.854 236.025 111.119C237.109 112.384 237.876 113.829 238.328 115.455ZM279.653 131.579C284.441 143.684 289.138 154.253 293.745 163.286H310.547C315.154 154.253 319.806 143.684 324.503 131.579C329.291 119.475 333.808 106.286 338.053 92.0137H317.186C316.283 95.5366 315.199 99.3758 313.934 103.531C312.76 107.596 311.495 111.751 310.14 115.997C308.876 120.152 307.566 124.217 306.211 128.192C304.856 132.167 303.591 135.78 302.417 139.032C301.152 135.78 299.842 132.167 298.487 128.192C297.223 124.217 295.913 120.152 294.558 115.997C293.293 111.751 292.029 107.596 290.764 103.531C289.59 99.3758 288.551 95.5366 287.648 92.0137H266.239C270.484 106.286 274.956 119.475 279.653 131.579Z" fill="black"/>
<path d="M460.532 182.286V65.5311L483.666 61.8049V100.93C485.218 100.413 487.185 99.947 489.565 99.5329C492.05 99.0154 494.43 98.7566 496.707 98.7566C503.332 98.7566 508.818 99.6882 513.165 101.551C517.616 103.311 521.135 105.847 523.722 109.159C526.414 112.471 528.277 116.404 529.312 120.959C530.45 125.513 531.02 130.585 531.02 136.174V182.286H507.886V138.969C507.886 131.516 506.903 126.238 504.936 123.132C503.073 120.027 499.554 118.475 494.378 118.475C492.308 118.475 490.342 118.682 488.479 119.096C486.719 119.406 485.115 119.768 483.666 120.182V182.286H460.532ZM583.166 166.139C585.443 166.139 587.617 166.087 589.687 165.984C591.757 165.88 593.413 165.725 594.655 165.518V147.974C593.724 147.767 592.326 147.56 590.463 147.353C588.6 147.146 586.892 147.042 585.34 147.042C583.166 147.042 581.096 147.198 579.129 147.508C577.266 147.715 575.61 148.181 574.161 148.905C572.712 149.63 571.573 150.613 570.745 151.855C569.917 153.097 569.503 154.65 569.503 156.513C569.503 160.136 570.694 162.672 573.074 164.121C575.558 165.466 578.922 166.139 583.166 166.139ZM581.303 98.4461C588.134 98.4461 593.827 99.2224 598.382 100.775C602.936 102.328 606.559 104.553 609.25 107.451C612.044 110.349 614.011 113.869 615.15 118.009C616.288 122.149 616.857 126.755 616.857 131.827V179.957C613.545 180.682 608.939 181.51 603.039 182.441C597.14 183.477 589.998 183.994 581.614 183.994C576.335 183.994 571.522 183.528 567.174 182.597C562.931 181.665 559.256 180.164 556.151 178.094C553.046 175.921 550.665 173.126 549.009 169.71C547.353 166.294 546.525 162.102 546.525 157.134C546.525 152.373 547.456 148.336 549.32 145.024C551.286 141.712 553.874 139.072 557.083 137.106C560.291 135.139 563.966 133.742 568.106 132.914C572.246 131.982 576.542 131.516 580.993 131.516C583.994 131.516 586.634 131.672 588.911 131.982C591.291 132.189 593.206 132.5 594.655 132.914V130.74C594.655 126.807 593.465 123.65 591.084 121.269C588.704 118.889 584.563 117.698 578.664 117.698C574.73 117.698 570.849 118.009 567.019 118.63C563.189 119.147 559.877 119.924 557.083 120.959L554.133 102.328C555.478 101.914 557.134 101.5 559.101 101.086C561.171 100.568 563.396 100.154 565.777 99.8434C568.158 99.4294 570.642 99.1189 573.23 98.9119C575.921 98.6014 578.612 98.4461 581.303 98.4461ZM660.91 182.286H637.776V100.62H660.91V182.286ZM663.084 77.0203C663.084 81.2641 661.686 84.628 658.892 87.1122C656.2 89.4928 652.992 90.6831 649.265 90.6831C645.539 90.6831 642.279 89.4928 639.484 87.1122C636.793 84.628 635.447 81.2641 635.447 77.0203C635.447 72.7766 636.793 69.4644 639.484 67.0837C642.279 64.5996 645.539 63.3575 649.265 63.3575C652.992 63.3575 656.2 64.5996 658.892 67.0837C661.686 69.4644 663.084 72.7766 663.084 77.0203ZM681.88 80.2808L705.013 76.5545V100.62H732.805V119.872H705.013V148.595C705.013 153.46 705.841 157.341 707.497 160.239C709.257 163.138 712.724 164.587 717.9 164.587C720.384 164.587 722.92 164.38 725.507 163.966C728.199 163.448 730.631 162.775 732.805 161.947L736.065 179.957C733.27 181.096 730.165 182.079 726.75 182.907C723.334 183.735 719.142 184.149 714.174 184.149C707.86 184.149 702.633 183.321 698.492 181.665C694.352 179.906 691.04 177.525 688.556 174.523C686.072 171.418 684.312 167.692 683.277 163.345C682.345 158.997 681.88 154.184 681.88 148.905V80.2808ZM774.777 182.286H751.643V100.62H774.777V182.286ZM776.95 77.0203C776.95 81.2641 775.553 84.628 772.758 87.1122C770.067 89.4928 766.859 90.6831 763.132 90.6831C759.406 90.6831 756.146 89.4928 753.351 87.1122C750.66 84.628 749.314 81.2641 749.314 77.0203C749.314 72.7766 750.66 69.4644 753.351 67.0837C756.146 64.5996 759.406 63.3575 763.132 63.3575C766.859 63.3575 770.067 64.5996 772.758 67.0837C775.553 69.4644 776.95 72.7766 776.95 77.0203Z" fill="black"/>
</svg>
