<svg width="285" height="50" viewBox="0 0 285 50" fill="none" xmlns="http://www.w3.org/2000/svg">
<g clip-path="url(#clip0)">
<rect width="285" height="50" fill="white"/>
<rect y="-2" width="310" height="55" fill="black"/>
<mask id="mask0" mask-type="alpha" maskUnits="userSpaceOnUse" x="0" y="0" width="50" height="50">
<rect width="50" height="50" fill="#C4C4C4"/>
</mask>
<g mask="url(#mask0)">
<rect y="25" width="50" height="26" fill="#D74A4A"/>
<rect y="-1" width="50" height="26" fill="#4449CC"/>
<rect x="18" y="18" width="14" height="14" fill="white"/>
</g>
<path d="M80.392 15.596C80.728 16.212 81.1107 16.9773 81.54 17.892C81.988 18.788 82.4453 19.768 82.912 20.832C83.3973 21.8773 83.8733 22.9507 84.34 24.052C84.8067 25.1533 85.2453 26.1893 85.656 27.16C86.0667 26.1893 86.5053 25.1533 86.972 24.052C87.4387 22.9507 87.9053 21.8773 88.372 20.832C88.8573 19.768 89.3147 18.788 89.744 17.892C90.192 16.9773 90.584 16.212 90.92 15.596H94.896C95.0827 16.884 95.2507 18.3307 95.4 19.936C95.568 21.5227 95.708 23.184 95.82 24.92C95.9507 26.6373 96.0627 28.364 96.156 30.1C96.268 31.836 96.3613 33.4693 96.436 35H92.18C92.124 33.1147 92.0493 31.0613 91.956 28.84C91.8627 26.6187 91.7227 24.3787 91.536 22.12C91.2 22.904 90.8267 23.772 90.416 24.724C90.0053 25.676 89.5947 26.628 89.184 27.58C88.792 28.532 88.4093 29.4467 88.036 30.324C87.6627 31.1827 87.3453 31.92 87.084 32.536H84.032C83.7707 31.92 83.4533 31.1827 83.08 30.324C82.7067 29.4467 82.3147 28.532 81.904 27.58C81.512 26.628 81.1107 25.676 80.7 24.724C80.2893 23.772 79.916 22.904 79.58 22.12C79.3933 24.3787 79.2533 26.6187 79.16 28.84C79.0667 31.0613 78.992 33.1147 78.936 35H74.68C74.7547 33.4693 74.8387 31.836 74.932 30.1C75.044 28.364 75.156 26.6373 75.268 24.92C75.3987 23.184 75.5387 21.5227 75.688 19.936C75.856 18.3307 76.0333 16.884 76.22 15.596H80.392ZM112.521 35C112.316 34.328 112.082 33.6373 111.821 32.928C111.578 32.2187 111.336 31.5093 111.093 30.8H103.533C103.29 31.5093 103.038 32.2187 102.777 32.928C102.534 33.6373 102.31 34.328 102.105 35H97.5689C98.2969 32.9093 98.9876 30.9773 99.6409 29.204C100.294 27.4307 100.929 25.76 101.545 24.192C102.18 22.624 102.796 21.14 103.393 19.74C104.009 18.3213 104.644 16.94 105.297 15.596H109.469C110.104 16.94 110.729 18.3213 111.345 19.74C111.961 21.14 112.577 22.624 113.193 24.192C113.828 25.76 114.472 27.4307 115.125 29.204C115.778 30.9773 116.469 32.9093 117.197 35H112.521ZM107.285 19.992C107.192 20.272 107.052 20.6547 106.865 21.14C106.678 21.6253 106.464 22.1853 106.221 22.82C105.978 23.4547 105.708 24.1547 105.409 24.92C105.129 25.6853 104.84 26.488 104.541 27.328H110.057C109.758 26.488 109.469 25.6853 109.189 24.92C108.909 24.1547 108.638 23.4547 108.377 22.82C108.134 22.1853 107.92 21.6253 107.733 21.14C107.546 20.6547 107.397 20.272 107.285 19.992ZM123.237 31.444C123.442 31.4627 123.675 31.4813 123.937 31.5C124.217 31.5 124.543 31.5 124.917 31.5C127.101 31.5 128.715 30.9493 129.761 29.848C130.825 28.7467 131.357 27.2253 131.357 25.284C131.357 23.2493 130.853 21.7093 129.845 20.664C128.837 19.6187 127.241 19.096 125.057 19.096C124.758 19.096 124.45 19.1053 124.133 19.124C123.815 19.124 123.517 19.1427 123.237 19.18V31.444ZM135.865 25.284C135.865 26.964 135.603 28.4293 135.081 29.68C134.558 30.9307 133.811 31.9667 132.841 32.788C131.889 33.6093 130.722 34.2253 129.341 34.636C127.959 35.0467 126.41 35.252 124.693 35.252C123.909 35.252 122.994 35.2147 121.949 35.14C120.903 35.084 119.877 34.9533 118.869 34.748V15.848C119.877 15.6613 120.922 15.54 122.005 15.484C123.106 15.4093 124.049 15.372 124.833 15.372C126.494 15.372 127.997 15.5587 129.341 15.932C130.703 16.3053 131.87 16.8933 132.841 17.696C133.811 18.4987 134.558 19.5253 135.081 20.776C135.603 22.0267 135.865 23.5293 135.865 25.284ZM138.673 35V15.596H151.777V19.264H143.041V23.072H150.797V26.656H143.041V31.332H152.421V35H138.673ZM160.7 15.596H165.068V35H160.7V15.596ZM181.74 35C180.489 32.7787 179.136 30.5853 177.68 28.42C176.224 26.2547 174.674 24.2107 173.032 22.288V35H168.72V15.596H172.276C172.892 16.212 173.573 16.968 174.32 17.864C175.066 18.76 175.822 19.7213 176.588 20.748C177.372 21.756 178.146 22.8107 178.912 23.912C179.677 24.9947 180.396 26.04 181.068 27.048V15.596H185.408V35H181.74ZM206.634 15.596H211.002V35H206.634V26.768H199.298V35H194.93V15.596H199.298V23.016H206.634V15.596ZM227.645 35C227.439 34.328 227.206 33.6373 226.945 32.928C226.702 32.2187 226.459 31.5093 226.217 30.8H218.657C218.414 31.5093 218.162 32.2187 217.901 32.928C217.658 33.6373 217.434 34.328 217.229 35H212.693C213.421 32.9093 214.111 30.9773 214.765 29.204C215.418 27.4307 216.053 25.76 216.669 24.192C217.303 22.624 217.919 21.14 218.517 19.74C219.133 18.3213 219.767 16.94 220.421 15.596H224.593C225.227 16.94 225.853 18.3213 226.469 19.74C227.085 21.14 227.701 22.624 228.317 24.192C228.951 25.76 229.595 27.4307 230.249 29.204C230.902 30.9773 231.593 32.9093 232.321 35H227.645ZM222.409 19.992C222.315 20.272 222.175 20.6547 221.989 21.14C221.802 21.6253 221.587 22.1853 221.345 22.82C221.102 23.4547 220.831 24.1547 220.533 24.92C220.253 25.6853 219.963 26.488 219.665 27.328H225.181C224.882 26.488 224.593 25.6853 224.313 24.92C224.033 24.1547 223.762 23.4547 223.501 22.82C223.258 22.1853 223.043 21.6253 222.857 21.14C222.67 20.6547 222.521 20.272 222.409 19.992ZM233.992 15.596H238.36V35H233.992V15.596ZM256.404 15.596V19.32H250.552V35H246.184V19.32H240.332V15.596H256.404ZM258.371 15.596H262.739V35H258.371V15.596Z" fill="white"/>
</g>
<defs>
<clipPath id="clip0">
<rect width="285" height="50" fill="white"/>
</clipPath>
</defs>
</svg>
